HIERARCHY
ROOT reference
{
  OFFSET 0 0 0
  CHANNELS 6 Xposition Yposition Zposition Zrotation Xrotation Yrotation
  JOINT Hips
  {
    OFFSET 349.773 89.4622 219.413
    CHANNELS 3 Zrotation Xrotation Yrotation
    JOINT RightUpLeg
    {
      OFFSET -9.25229 -1.56476 -0.00486621
      CHANNELS 3 Zrotation Xrotation Yrotation
      JOINT RightLeg
      {
        OFFSET 0.0546168 -41.8841 0.068862
        CHANNELS 3 Zrotation Xrotation Yrotation
        JOINT RightFoot
        {
          OFFSET -1.63893 -40.8901 3.53979
          CHANNELS 3 Zrotation Xrotation Yrotation
          End Site
          {
            OFFSET 0 -7.69 17.5
          }
        }
      }
    }
    JOINT LeftUpLeg
    {
      OFFSET 9.30241 -1.63853 -0.0284428
      CHANNELS 3 Zrotation Xrotation Yrotation
      JOINT LeftLeg
      {
        OFFSET 0.0539686 -41.842 -0.0517406
        CHANNELS 3 Zrotation Xrotation Yrotation
        JOINT LeftFoot
        {
          OFFSET 1.12518 -42.5382 -2.5849
          CHANNELS 3 Zrotation Xrotation Yrotation
          End Site
          {
            OFFSET 0 -7.69 17.5
          }
        }
      }
    }
    JOINT Spine
    {
      OFFSET 0.0144198 14.3187 0.0981135
      CHANNELS 3 Zrotation Xrotation Yrotation
      JOINT Spine1
      {
        OFFSET 0.0112165 9.7169 0.0514987
        CHANNELS 3 Zrotation Xrotation Yrotation
        JOINT Spine2
        {
          OFFSET 0.0255827 10.1205 -0.00638435
          CHANNELS 3 Zrotation Xrotation Yrotation
          JOINT Spine3
          {
            OFFSET -0.00190646 9.72552 0.024249
            CHANNELS 3 Zrotation Xrotation Yrotation
            JOINT Neck
            {
              OFFSET -0.136438 10.3681 0.0553958
              CHANNELS 3 Zrotation Xrotation Yrotation
              JOINT Head
              {
                OFFSET 0.0264476 9.5071 0.170402
                CHANNELS 3 Zrotation Xrotation Yrotation
                End Site
                {
                  OFFSET 0 15.95 0
                }
              }
            }
            JOINT RightShoulder
            {
              OFFSET -3.1747 6.92483 0.00547946
              CHANNELS 3 Zrotation Xrotation Yrotation
              JOINT RightArm
              {
                OFFSET -12.7755 -0.0136287 0.0362428
                CHANNELS 3 Zrotation Xrotation Yrotation
                JOINT RightForeArm
                {
                  OFFSET -26.5642 -0.108975 -0.0233747
                  CHANNELS 3 Zrotation Xrotation Yrotation
                  JOINT RightHand
                  {
                    OFFSET -25.905 -0.185223 0.00356295
                    CHANNELS 3 Zrotation Xrotation Yrotation
                    JOINT RightHandThumb1
                    {
                      OFFSET -2.48905 0.190105 3.12053
                      CHANNELS 3 Zrotation Xrotation Yrotation
                      JOINT RightHandThumb2
                      {
                        OFFSET -3.68274 0 0
                        CHANNELS 3 Zrotation Xrotation Yrotation
                        JOINT RightHandThumb3
                        {
                          OFFSET -2.55832 0 0
                          CHANNELS 3 Zrotation Xrotation Yrotation
                          End Site
                          {
                            OFFSET -2.194 0 0
                          }
                        }
                      }
                    }
                    JOINT RightInHandIndex
                    {
                      OFFSET -3.22368 0.508421 1.97842
                      CHANNELS 3 Zrotation Xrotation Yrotation
                      JOINT RightHandIndex1
                      {
                        OFFSET -5.21684 -0.091368 0.999158
                        CHANNELS 3 Zrotation Xrotation Yrotation
                        JOINT RightHandIndex2
                        {
                          OFFSET -3.61937 0 0
                          CHANNELS 3 Zrotation Xrotation Yrotation
                          JOINT RightHandIndex3
                          {
                            OFFSET -2.0521 0 0
                            CHANNELS 3 Zrotation Xrotation Yrotation
                            End Site
                            {
                              OFFSET -1.805 0 0
                            }
                          }
                        }
                      }
                    }
                    JOINT RightInHandMiddle
                    {
                      OFFSET -3.38211 0.517263 0.756737
                      CHANNELS 3 Zrotation Xrotation Yrotation
                      JOINT RightHandMiddle1
                      {
                        OFFSET -5.17411 -0.084 0.313895
                        CHANNELS 3 Zrotation Xrotation Yrotation
                        JOINT RightHandMiddle2
                        {
                          OFFSET -3.94947 0 0
                          CHANNELS 3 Zrotation Xrotation Yrotation
                          JOINT RightHandMiddle3
                          {
                            OFFSET -2.47579 0 0
                            CHANNELS 3 Zrotation Xrotation Yrotation
                            End Site
                            {
                              OFFSET -1.975 0 0
                            }
                          }
                        }
                      }
                    }
                    JOINT RightInHandRing
                    {
                      OFFSET -3.36516 0.537895 -0.128947
                      CHANNELS 3 Zrotation Xrotation Yrotation
                      JOINT RightHandRing1
                      {
                        OFFSET -4.63474 -0.022105 -0.478947
                        CHANNELS 3 Zrotation Xrotation Yrotation
                        JOINT RightHandRing2
                        {
                          OFFSET -3.44238 0 0
                          CHANNELS 3 Zrotation Xrotation Yrotation
                          JOINT RightHandRing3
                          {
                            OFFSET -2.3881 0 0
                            CHANNELS 3 Zrotation Xrotation Yrotation
                            End Site
                            {
                              OFFSET -1.857 0 0
                            }
                          }
                        }
                      }
                    }
                    JOINT RightInHandPinky
                    {
                      OFFSET -3.16105 0.469368 -1.20179
                      CHANNELS 3 Zrotation Xrotation Yrotation
                      JOINT RightHandPinky1
                      {
                        OFFSET -4.14105 -0.022105 -1.09053
                        CHANNELS 3 Zrotation Xrotation Yrotation
                        JOINT RightHandPinky2
                        {
                          OFFSET -2.75653 0 0
                          CHANNELS 3 Zrotation Xrotation Yrotation
                          JOINT RightHandPinky3
                          {
                            OFFSET -1.74189 0 0
                            CHANNELS 3 Zrotation Xrotation Yrotation
                            End Site
                            {
                              OFFSET -1.645 0 0
                            }
                          }
                        }
                      }
                    }
                  }
                }
              }
            }
            JOINT LeftShoulder
            {
              OFFSET 3.23079 6.93624 -0.032633
              CHANNELS 3 Zrotation Xrotation Yrotation
              JOINT LeftArm
              {
                OFFSET 12.8235 -0.00564763 -0.0637926
                CHANNELS 3 Zrotation Xrotation Yrotation
                JOINT LeftForeArm
                {
                  OFFSET 26.4641 -0.00020372 -0.0407631
                  CHANNELS 3 Zrotation Xrotation Yrotation
                  JOINT LeftHand
                  {
                    OFFSET 25.9912 -0.0207868 -0.0178714
                    CHANNELS 3 Zrotation Xrotation Yrotation
                    JOINT LeftHandThumb1
                    {
                      OFFSET 2.48905 0.190105 3.12053
                      CHANNELS 3 Zrotation Xrotation Yrotation
                      JOINT LeftHandThumb2
                      {
                        OFFSET 3.68274 0 0
                        CHANNELS 3 Zrotation Xrotation Yrotation
                        JOINT LeftHandThumb3
                        {
                          OFFSET 2.55832 0 0
                          CHANNELS 3 Zrotation Xrotation Yrotation
                          End Site
                          {
                            OFFSET 2.194 0 0
                          }
                        }
                      }
                    }
                    JOINT LeftInHandIndex
                    {
                      OFFSET 3.22368 0.508421 1.97842
                      CHANNELS 3 Zrotation Xrotation Yrotation
                      JOINT LeftHandIndex1
                      {
                        OFFSET 5.21684 -0.091368 0.999158
                        CHANNELS 3 Zrotation Xrotation Yrotation
                        JOINT LeftHandIndex2
                        {
                          OFFSET 3.61937 0 0
                          CHANNELS 3 Zrotation Xrotation Yrotation
                          JOINT LeftHandIndex3
                          {
                            OFFSET 2.0521 0 0
                            CHANNELS 3 Zrotation Xrotation Yrotation
                            End Site
                            {
                              OFFSET 1.805 0 0
                            }
                          }
                        }
                      }
                    }
                    JOINT LeftInHandMiddle
                    {
                      OFFSET 3.38211 0.517263 0.756737
                      CHANNELS 3 Zrotation Xrotation Yrotation
                      JOINT LeftHandMiddle1
                      {
                        OFFSET 5.17411 -0.084 0.313895
                        CHANNELS 3 Zrotation Xrotation Yrotation
                        JOINT LeftHandMiddle2
                        {
                          OFFSET 3.94947 0 0
                          CHANNELS 3 Zrotation Xrotation Yrotation
                          JOINT LeftHandMiddle3
                          {
                            OFFSET 2.47579 0 0
                            CHANNELS 3 Zrotation Xrotation Yrotation
                            End Site
                            {
                              OFFSET 1.975 0 0
                            }
                          }
                        }
                      }
                    }
                    JOINT LeftInHandRing
                    {
                      OFFSET 3.36516 0.537895 -0.128947
                      CHANNELS 3 Zrotation Xrotation Yrotation
                      JOINT LeftHandRing1
                      {
                        OFFSET 4.63474 -0.022105 -0.478947
                        CHANNELS 3 Zrotation Xrotation Yrotation
                        JOINT LeftHandRing2
                        {
                          OFFSET 3.44238 0 0
                          CHANNELS 3 Zrotation Xrotation Yrotation
                          JOINT LeftHandRing3
                          {
                            OFFSET 2.3881 0 0
                            CHANNELS 3 Zrotation Xrotation Yrotation
                            End Site
                            {
                              OFFSET 1.857 0 0
                            }
                          }
                        }
                      }
                    }
                    JOINT LeftInHandPinky
                    {
                      OFFSET 3.16105 0.469368 -1.20179
                      CHANNELS 3 Zrotation Xrotation Yrotation
                      JOINT LeftHandPinky1
                      {
                        OFFSET 4.14105 -0.022105 -1.09053
                        CHANNELS 3 Zrotation Xrotation Yrotation
                        JOINT LeftHandPinky2
                        {
                          OFFSET 2.75653 0 0
                          CHANNELS 3 Zrotation Xrotation Yrotation
                          JOINT LeftHandPinky3
                          {
                            OFFSET 1.74189 0 0
                            CHANNELS 3 Zrotation Xrotation Yrotation
                            End Site
                            {
                              OFFSET 1.645 0 0
                            }
                          }
                        }
                      }
                    }
                  }
                }
              }
            }
          }
        }
      }
    }
  }
}
MOTION
Frames: 2
Frame Time: 0.00833333
9.000000000000000000e+02 0.000000000000000000e+00 0.000000000000000000e+00 0.000000000000000000e+00 0.000000000000000000e+00 0.000000000000000000e+00 4.087127136009190309e+00 -1.894314012174302064e+00 -3.273181974180901221e+01 1.540560964224035523e+01 -1.263481201272341536e+01 1.568397958401338066e+01 -4.794293319331558223e+00 -2.632590049936679222e+00 9.547105691522542514e+00 -2.146428718902436028e+00 7.932479648750269341e+00 8.687559633135640169e+00 2.081297191147120884e+01 -1.510493895259684249e+00 1.969929506597549107e+01 -8.915614174432620942e+00 8.685373420258537536e+00 1.243760297475506782e+01 2.579587652170737044e+00 -5.652748845429274027e+00 8.193613049620399380e+00 -1.546643969023341059e-01 1.470666282159031502e+00 -1.582813461716870407e+01 -3.364471665250508281e-02 2.364918646045165995e-01 -4.063074813385036954e+00 -5.032828133306656293e-02 3.229978020197069588e-01 -5.954654433461039176e+00 -3.274658496395831397e-01 4.645608312905769727e-02 1.398553633771659532e+00 -1.114411519191125688e+00 -1.282659514757054087e-01 2.207218145752369765e+01 -5.224802856907878379e+00 7.056667796502535950e-01 1.256856345366767336e+01 6.549811796130335928e+00 7.929533414160381710e+00 -1.406243115562755719e+01 1.584855054042701283e+01 -1.707104671543104857e+01 -2.783932282031326011e+01 3.810612087399155712e+01 -4.142488605007017988e+00 9.608718915940150040e+00 -8.922539414246209333e+00 -1.005573559560946961e+01 4.022861967321267329e-01 0.000000000000000000e+00 0.000000000000000000e+00 0.000000000000000000e+00 2.496335479321581473e-16 -4.856009190397279762e-15 0.000000000000000000e+00 3.589548909990251573e-15 -9.354418036795213342e-16 0.000000000000000000e+00 2.514688129625423783e-15 -2.071150003598687938e-16 2.657592177945098064e-15 0.000000000000000000e+00 0.000000000000000000e+00 0.000000000000000000e+00 0.000000000000000000e+00 -4.901371894701769814e-16 2.312095362851696957e-15 0.000000000000000000e+00 2.016294728462938258e-15 2.302113092135604327e-15 2.514688129625423783e-15 -2.071150003598687938e-16 2.657592177945098064e-15 0.000000000000000000e+00 -3.234256395700553132e-15 -6.662972406565105397e-15 0.000000000000000000e+00 3.459756127866428202e-16 -4.483111964954436214e-15 0.000000000000000000e+00 -1.241042149626782564e-15 8.845880417428703348e-16 2.514688129625423783e-15 -2.071150003598687938e-16 2.657592177945098064e-15 0.000000000000000000e+00 0.000000000000000000e+00 0.000000000000000000e+00 0.000000000000000000e+00 -3.854753603514066015e-15 -4.422522383041384876e-15 0.000000000000000000e+00 1.807194006965613844e-16 6.349126139636389350e-15 2.514688129625423783e-15 -2.071150003598687938e-16 2.657592177945098064e-15 0.000000000000000000e+00 0.000000000000000000e+00 0.000000000000000000e+00 0.000000000000000000e+00 1.362678394551353682e-15 -9.430822439609172306e-15 0.000000000000000000e+00 1.782699939857011040e-15 4.401781688578753680e-16 5.662581419406823358e+00 -2.005803259062892252e+00 -9.876770135214645308e+00 2.822933581199196595e+01 2.383445622019154797e+01 -2.162037866034849287e+01 -6.002996775659732442e+00 3.480749122336124657e+00 4.198495192686726085e+01 -1.822274201069417066e+00 -2.614396307576142497e+00 9.122867663543427597e+00 0.000000000000000000e+00 0.000000000000000000e+00 0.000000000000000000e+00 -6.201109514323634199e-15 1.191836523761314919e-15 0.000000000000000000e+00 -4.365235551320703751e-15 3.359658305930927020e-15 0.000000000000000000e+00 -4.974422041765105175e-16 -1.220441049024029547e-15 -1.151376974534294325e-15 0.000000000000000000e+00 0.000000000000000000e+00 0.000000000000000000e+00 0.000000000000000000e+00 -1.750099067333518153e-15 5.571646923487447059e-15 0.000000000000000000e+00 -1.203456416759930230e-15 3.221012413843479240e-15 -4.974422041765105175e-16 -1.220441049024029547e-15 -1.151376974534294325e-15 0.000000000000000000e+00 -1.156980135517728321e-15 2.381228903393786941e-15 0.000000000000000000e+00 -2.409947819065325297e-15 3.254030869408581104e-15 0.000000000000000000e+00 -5.658886341804430777e-15 2.462395002992919786e-15 -4.974422041765105175e-16 -1.220441049024029547e-15 -1.151376974534294325e-15 0.000000000000000000e+00 0.000000000000000000e+00 0.000000000000000000e+00 0.000000000000000000e+00 -2.818242488556655283e-15 1.076107474843215579e-15 0.000000000000000000e+00 -1.143818500332107079e-15 3.739953917502044278e-16 -4.974422041765105175e-16 -1.220441049024029547e-15 -1.151376974534294325e-15 0.000000000000000000e+00 0.000000000000000000e+00 0.000000000000000000e+00 0.000000000000000000e+00 4.051391390991831162e-15 1.994540222598058786e-15 0.000000000000000000e+00 -3.950750849292718749e-15 -4.720367399780489295e-16
9.000000000000000000e+02 0.000000000000000000e+00 0.000000000000000000e+00 0.000000000000000000e+00 0.000000000000000000e+00 0.000000000000000000e+00 4.143408802711752159e+00 -1.855290760924538818e+00 -3.297972405697249343e+01 1.541955705328122939e+01 -1.279770877629057324e+01 1.576577012066103478e+01 -4.800247301547413414e+00 -2.661633413636590006e+00 9.579115311749625050e+00 -2.148044307442678491e+00 7.957845384572272529e+00 8.699410472242224301e+00 2.101577118391275434e+01 -1.603036867779491725e+00 1.991495380499656420e+01 -8.962028255775965846e+00 8.657968801489738908e+00 1.245682306156881936e+01 2.593032184438717636e+00 -5.651596015398730799e+00 8.263130194421878016e+00 -1.604186786040777413e-01 1.507109163138914631e+00 -1.586254346554946970e+01 -3.293620431457656983e-02 2.461036816444848174e-01 -4.071894597532039306e+00 -4.992671128233451550e-02 3.386786757783636359e-01 -5.960249392070089414e+00 -3.275835593949207314e-01 4.692294167749951755e-02 1.396818653517236886e+00 -1.118952150496383302e+00 -1.121804474585314515e-01 2.222524321521040847e+01 -5.215535635493681710e+00 6.653867203967677169e-01 1.243418087436554487e+01 6.556393090127391687e+00 7.946978468920210759e+00 -1.409800167025291273e+01 1.592260473836762102e+01 -1.718296486552060642e+01 -2.784310545982534180e+01 3.847868874182522347e+01 -4.089709052167315839e+00 9.236786192435292975e+00 -8.879989082332881978e+00 -1.014279094556956196e+01 1.475011431946520180e-01 0.000000000000000000e+00 0.000000000000000000e+00 0.000000000000000000e+00 2.433961718986283759e-16 -4.848641611774158768e-15 0.000000000000000000e+00 3.603511208030709561e-15 -9.205613448517064444e-16 0.000000000000000000e+00 2.548350651719767226e-15 -1.952783873864663589e-16 2.632073020164382480e-15 0.000000000000000000e+00 0.000000000000000000e+00 0.000000000000000000e+00 0.000000000000000000e+00 -4.492504520335480954e-16 2.367708692939196938e-15 0.000000000000000000e+00 2.025042679992221217e-15 2.399057537008274231e-15 2.548350651719767226e-15 -1.952783873864663589e-16 2.632073020164382480e-15 0.000000000000000000e+00 -3.244314175928462557e-15 -6.773085948106231045e-15 0.000000000000000000e+00 3.928416610750307362e-16 -4.442132572880445717e-15 0.000000000000000000e+00 -1.255990089355595606e-15 9.008570841654340138e-16 2.548350651719767226e-15 -1.952783873864663589e-16 2.632073020164382480e-15 0.000000000000000000e+00 0.000000000000000000e+00 0.000000000000000000e+00 0.000000000000000000e+00 -3.900275758285933362e-15 -4.381905296541881790e-15 0.000000000000000000e+00 2.087493621385791424e-16 6.426160971814727282e-15 2.548350651719767226e-15 -1.952783873864663589e-16 2.632073020164382480e-15 0.000000000000000000e+00 0.000000000000000000e+00 0.000000000000000000e+00 0.000000000000000000e+00 1.360118746129854837e-15 -9.431769580101983049e-15 0.000000000000000000e+00 1.767086167699965970e-15 4.602736726458542797e-16 5.740669783406498361e+00 -2.083893242974391491e+00 -9.935853289357195806e+00 2.835442627162414198e+01 2.415871096444057642e+01 -2.166079055344700777e+01 -6.845720376112359951e+00 3.295529100142266188e+00 4.172275812593913003e+01 -1.817270052807167913e+00 -2.698219735139893327e+00 9.187299019975345260e+00 0.000000000000000000e+00 0.000000000000000000e+00 0.000000000000000000e+00 -6.307127206659036908e-15 1.250574123656278565e-15 0.000000000000000000e+00 -4.395561006526884255e-15 3.384220112387002751e-15 0.000000000000000000e+00 -4.927502473154842754e-16 -1.215861660282167161e-15 -1.167008953740320081e-15 0.000000000000000000e+00 0.000000000000000000e+00 0.000000000000000000e+00 0.000000000000000000e+00 -1.755408804083096990e-15 5.578843565601541838e-15 0.000000000000000000e+00 -1.192926025797964129e-15 3.190156559849060520e-15 -4.927502473154842754e-16 -1.215861660282167161e-15 -1.167008953740320081e-15 0.000000000000000000e+00 -1.192832172980036161e-15 2.377570676146464939e-15 0.000000000000000000e+00 -2.412586340577573082e-15 3.299262581357083549e-15 0.000000000000000000e+00 -5.696749141994685565e-15 2.466952499628421986e-15 -4.927502473154842754e-16 -1.215861660282167161e-15 -1.167008953740320081e-15 0.000000000000000000e+00 0.000000000000000000e+00 0.000000000000000000e+00 0.000000000000000000e+00 -2.857309545490325136e-15 1.138165217258590209e-15 0.000000000000000000e+00 -1.155167693626149641e-15 4.028263374126382389e-16 -4.927502473154842754e-16 -1.215861660282167161e-15 -1.167008953740320081e-15 0.000000000000000000e+00 0.000000000000000000e+00 0.000000000000000000e+00 0.000000000000000000e+00 4.111895046948789086e-15 1.984920030917511016e-15 0.000000000000000000e+00 -3.999543829665061891e-15 -5.083451029054375878e-16
